<svg xmlns="http://www.w3.org/2000/svg" viewBox="0 0 136 136"><defs><style>.cls-1{fill:#fff;}</style></defs><title>Ikona_puchar</title><g id="Warstwa_2" data-name="Warstwa 2"><g id="Warstwa_1-2" data-name="Warstwa 1"><path class="cls-1" d="M129.2,6.8H108.8V0H27.2V6.8H6.8A6.42,6.42,0,0,0,0,13.6V29.92a30.85,30.85,0,0,0,27.2,30.6v.68a40.9,40.9,0,0,0,32,40.12L54.4,115.6H38.76a6.53,6.53,0,0,0-6.12,4.76L27.2,136h81.6l-5.44-15.64a6.53,6.53,0,0,0-6.12-4.76H81.6l-4.76-14.28a40.9,40.9,0,0,0,32-40.12v-.68A30.85,30.85,0,0,0,136,29.92V13.6A6.42,6.42,0,0,0,129.2,6.8ZM27.2,46.92c-7.48-2-13.6-8.84-13.6-17V20.4H27.2ZM81.6,68,68,60.52,54.4,68l3.4-13.6L47.6,40.8H61.88L68,27.2l6.12,13.6H88.4L78.2,54.4Zm40.8-38.08c0,8.16-6.12,15.64-13.6,17V20.4h13.6Z"/></g></g></svg>