<svg xmlns="http://www.w3.org/2000/svg" viewBox="0 0 101.01 136"><defs><style>.cls-1{fill:#fff;}</style></defs><title>Ikona_medal</title><g id="Warstwa_2" data-name="Warstwa 2"><g id="Warstwa_1-2" data-name="Warstwa 1"><path class="cls-1" d="M100.68,61.39,94,52.3a1.71,1.71,0,0,1,0-2l6.51-9.17a1.7,1.7,0,0,0-.58-2.47L90,33.37a1.66,1.66,0,0,1-.86-1.78L91,20.49a1.69,1.69,0,0,0-1.61-2L78.16,18a1.7,1.7,0,0,1-1.56-1.22L73.49,6A1.69,1.69,0,0,0,71.18,4.9L60.84,9.34a1.76,1.76,0,0,1-1.95-.42L51.39.56a1.71,1.71,0,0,0-2.56,0l-7.4,8.48a1.67,1.67,0,0,1-1.92.44L29.12,5.23a1.7,1.7,0,0,0-2.28,1.11l-3,10.84a1.72,1.72,0,0,1-1.53,1.25l-11.23.64a1.71,1.71,0,0,0-1.58,2l2,11.06a1.68,1.68,0,0,1-.83,1.78L.87,39.37a1.71,1.71,0,0,0-.56,2.47L7,50.94a1.71,1.71,0,0,1,0,2L.48,62.08a1.7,1.7,0,0,0,.58,2.47L11,69.87a1.66,1.66,0,0,1,.86,1.78L10,82.74a1.69,1.69,0,0,0,1.61,2l11.23.47a1.7,1.7,0,0,1,1.56,1.22l3.14,10.81a1.69,1.69,0,0,0,2.31,1.08l10.34-4.45a1.76,1.76,0,0,1,1.95.42l7.51,8.37a1.71,1.71,0,0,0,2.56,0l7.4-8.48a1.67,1.67,0,0,1,1.92-.44L71.9,98a1.7,1.7,0,0,0,2.28-1.11l3-10.84a1.72,1.72,0,0,1,1.53-1.25l11.23-.64a1.71,1.71,0,0,0,1.58-2l-2-11.06a1.68,1.68,0,0,1,.83-1.78l9.84-5.45A1.64,1.64,0,0,0,100.68,61.39ZM50.52,82.16A30.53,30.53,0,1,1,81.05,51.63,30.58,30.58,0,0,1,50.52,82.16Z"/><path class="cls-1" d="M78,101.9a8.8,8.8,0,0,1-6.28,2.61,9.59,9.59,0,0,1-2.53-.36L62,102,56.5,107c-.19.17-.36.33-.56.47l8.9,27.58a1.26,1.26,0,0,0,2.2.39l6.48-8.31a1.25,1.25,0,0,1,1.33-.44l10.09,2.95a1.26,1.26,0,0,0,1.56-1.58Z"/><path class="cls-1" d="M39,102l-7.17,2.17a8.7,8.7,0,0,1-2.53.36,8.85,8.85,0,0,1-6.28-2.61l-8.48,26.22a1.25,1.25,0,0,0,1.56,1.58l10.09-2.95a1.23,1.23,0,0,1,1.33.44L34,135.51a1.26,1.26,0,0,0,2.2-.39l8.9-27.58a4.54,4.54,0,0,1-.56-.47Z"/><path class="cls-1" d="M68.62,44l-11.51-.83L52.78,32.53a2.42,2.42,0,0,0-4.48,0L44,43.21,32.45,44a2.42,2.42,0,0,0-1.39,4.25l8.81,7.45-2.75,11.2a2.42,2.42,0,0,0,3.61,2.64l9.79-6.09,9.79,6.09a2.42,2.42,0,0,0,3.61-2.64l-2.75-11.2L70,48.29A2.41,2.41,0,0,0,68.62,44Z"/></g></g></svg>