<svg xmlns="http://www.w3.org/2000/svg" viewBox="0 0 530.13 173"><defs><style>.cls-1{fill:#2487d4;}</style></defs><title>Twojelogo_niebieskie</title><g id="Warstwa_2" data-name="Warstwa 2"><g id="Warstwa_1-2" data-name="Warstwa 1"><path class="cls-1" d="M70.8,147.44H66V2.44q2.36-.58,4.77-1Z"/><rect class="cls-1" x="99.43" y="106.01" width="4.77" height="41.43"/><path class="cls-1" d="M173,86.5A86.5,86.5,0,1,1,61.26,3.74v143.7H55.32v4.31h58.31v-50h-19v45.73H80.34V.22Q83.39,0,86.5,0A86.5,86.5,0,0,1,173,86.5Z"/><path class="cls-1" d="M229.44,63.27h-9.58V38.32h-4.7v86.33h3.24V127H201.51v-2.35h3.24V38.32h-4.7V63.27h-9.58V36h39ZM195.67,61V38.32h-2.6V61ZM210,124.65V38.32h-2.6v86.33ZM225,61V38.32h-2.54V61Z"/><path class="cls-1" d="M277.94,61.75H274.7l-6,65.25h-9.9l-4.44-49.26L251.15,127h-9.84l-6-65.25H232V59.4h16.5v2.35h-3.24L248.93,113l3.68-53.57h9.58L266.77,113l4.32-51.23h-3.3V59.4h10.16Zm-31.87,62.91-5.71-62.91h-2.48l5.78,62.91Zm17.58,0-5.71-62.91h-2.48l5.71,62.91Z"/><path class="cls-1" d="M311.2,114.37a12.34,12.34,0,0,1-4.16,9.43,16.33,16.33,0,0,1-21,0,12.29,12.29,0,0,1-4.19-9.43V72A12.29,12.29,0,0,1,286,62.6a16.33,16.33,0,0,1,21,0A12.34,12.34,0,0,1,311.2,72Zm-22.6,9a11.27,11.27,0,0,1-1.71-6.54V69.55A11.28,11.28,0,0,1,288.6,63a9.32,9.32,0,0,0-4.32,8.06v44.24A9.32,9.32,0,0,0,288.6,123.38Zm12.44-3.3V66.32q0-5.2-4.51-5.21T292,66.32v53.76q0,5.2,4.57,5.21T301,120.08Zm5.08-3.62V69.93a9.35,9.35,0,0,0-4.7-8.32q2.09,2.22,2.09,6.47V118.3q0,4.25-2.09,6.47A9.35,9.35,0,0,0,306.12,116.46Z"/><path class="cls-1" d="M329.23,132a12.37,12.37,0,0,1-4.16,9.39,14.82,14.82,0,0,1-10.51,3.87h-3.24v-2.35h3.24q4.57,0,4.57-5.21V61.75H315.9V59.4h13.33Zm0-80.36H319.13V36h10.09Zm-5,82.46V61.75h-2.6v74.08q0,4.25-2,6.54A9.31,9.31,0,0,0,324.21,134Zm0-84.8V38.32h-2.6V49.24Z"/><path class="cls-1" d="M366.81,114.37a12.34,12.34,0,0,1-4.16,9.43,16.33,16.33,0,0,1-21,0,12.29,12.29,0,0,1-4.19-9.43V72a12.29,12.29,0,0,1,4.19-9.43,16.33,16.33,0,0,1,21,0A12.34,12.34,0,0,1,366.81,72V94.25H347.57v25.83q0,5.2,4.57,5.21t4.51-5.21V106.31h10.16Zm-22.6,9a11.27,11.27,0,0,1-1.71-6.54V69.55A11.28,11.28,0,0,1,344.21,63a9.32,9.32,0,0,0-4.32,8.06v44.24A9.32,9.32,0,0,0,344.21,123.38ZM356.65,91.9V66.32q0-5.2-4.51-5.21t-4.57,5.21V91.9Zm5.08,0v-22a9.35,9.35,0,0,0-4.7-8.32q2.09,2.22,2.09,6.47V91.9Zm0,24.57v-7.81h-2.6v9.65q0,4.25-2.09,6.47A9.35,9.35,0,0,0,361.73,116.46Z"/><path class="cls-1" d="M423.3,127H391.5v-2.35h3.24V38.32H391.5V36h16.88v2.35h-3.24v86.33H413V99.71H423.3Zm-23.36-2.35V38.32h-2.6v86.33Zm18.22,0v-22.6h-2.6v22.6Z"/><path class="cls-1" d="M457.89,114.37a12.34,12.34,0,0,1-4.16,9.43,16.33,16.33,0,0,1-21,0,12.29,12.29,0,0,1-4.19-9.43V72a12.29,12.29,0,0,1,4.19-9.43,16.33,16.33,0,0,1,21,0A12.34,12.34,0,0,1,457.89,72Zm-22.6,9a11.27,11.27,0,0,1-1.71-6.54V69.55A11.28,11.28,0,0,1,435.3,63,9.32,9.32,0,0,0,431,71.08v44.24A9.32,9.32,0,0,0,435.3,123.38Zm12.44-3.3V66.32q0-5.2-4.51-5.21t-4.57,5.21v53.76q0,5.2,4.57,5.21T447.74,120.08Zm5.08-3.62V69.93a9.35,9.35,0,0,0-4.7-8.32q2.09,2.22,2.09,6.47V118.3q0,4.25-2.09,6.47A9.35,9.35,0,0,0,452.82,116.46Z"/><path class="cls-1" d="M496.49,61.75h-3.24v70.84a12.66,12.66,0,0,1-3.94,9.43,14,14,0,0,1-10.22,3.84,14.85,14.85,0,0,1-10.25-3.9,12.16,12.16,0,0,1-4.35-9.36v-2.35h10.16v8.06q0,5.2,4.44,5.21,4,0,4-5.21V123.89a11.13,11.13,0,0,1-7.55,2.48q-11,0-11-12V70.7q0-11.93,11-11.93a11.13,11.13,0,0,1,7.55,2.48V59.4h13.39ZM472,124a9.35,9.35,0,0,1-2.48-6.92V68A9.27,9.27,0,0,1,472,61.11Q467,62.44,467,69.43V115.7Q467,122.62,472,124Zm-.76,17.52a11,11,0,0,1-1.71-6.47v-2.48H467v.89A9.22,9.22,0,0,0,471.29,141.54Zm11.81-20v-58a6.61,6.61,0,0,0-4.7-2.22q-3.75,0-3.75,5v52.5q0,5,3.75,5A6.61,6.61,0,0,0,483.09,121.54Zm5.08,13.14V61.75h-2.6v74.78a9.63,9.63,0,0,1-2,6.47A9.31,9.31,0,0,0,488.17,134.68Z"/><path class="cls-1" d="M530.13,114.37a12.34,12.34,0,0,1-4.16,9.43,16.33,16.33,0,0,1-21,0,12.29,12.29,0,0,1-4.19-9.43V72a12.29,12.29,0,0,1,4.19-9.43,16.33,16.33,0,0,1,21,0A12.34,12.34,0,0,1,530.13,72Zm-22.6,9a11.27,11.27,0,0,1-1.71-6.54V69.55A11.28,11.28,0,0,1,507.53,63a9.32,9.32,0,0,0-4.32,8.06v44.24A9.32,9.32,0,0,0,507.53,123.38Zm12.44-3.3V66.32q0-5.2-4.51-5.21t-4.57,5.21v53.76q0,5.2,4.57,5.21T520,120.08Zm5.08-3.62V69.93a9.35,9.35,0,0,0-4.7-8.32q2.09,2.22,2.09,6.47V118.3q0,4.25-2.09,6.47A9.35,9.35,0,0,0,525.05,116.46Z"/></g></g></svg>